<?xml version='1.0' encoding='utf-8'?>
<svg xmlns="http://www.w3.org/2000/svg" viewBox="0 0 1080 443" width="100%" height="100%">
  <rect x="34" y="0" width="371" height="442" fill="#febf00" stroke="none" />
  <g transform="translate(0.000000,443.000000) scale(0.100000,-0.100000)" fill="#000000" fill-rule="evenodd" stroke="none" id="logo-text">
    <path d="M393 3407 c-6 -10 -4 -587 3 -598 2 -5 592 -9 1310 -9 1142 0 1309 -2 1335 -15 35 -19 89 -109 89 -150 -1 -72 -69 -159 -147 -186 -31 -12 -266 -14 -1315 -14 -1271 0 -1278 0 -1279 -20 -1 -49 -1 -341 0 -447 l1 -118 711 0 711 0 77 -73 c42 -40 112 -103 156 -139 44 -37 98 -85 120 -108 22 -23 78 -74 125 -113 47 -39 114 -99 150 -133 36 -34 88 -80 115 -101 28 -22 64 -55 80 -74 17 -19 88 -83 159 -141 l128 -107 451 -1 c249 0 461 -2 471 -3 35 -4 25 18 -30 63 -31 25 -77 65 -103 90 -26 25 -96 88 -157 140 -60 52 -134 118 -164 146 -30 29 -103 94 -162 145 -58 52 -167 148 -242 213 -139 123 -164 158 -135 192 10 12 26 14 73 9 58 -6 145 3 248 24 73 16 201 84 281 151 90 76 145 147 208 275 28 55 56 106 62 114 8 9 12 72 12 195 l0 181 -33 77 c-18 43 -42 95 -54 115 -36 63 -124 175 -175 225 -54 52 -214 143 -265 151 -18 2 -59 14 -90 26 -57 21 -61 21 -1388 23 -733 2 -1334 0 -1337 -5z" />
    <path d="M5140 3394 c-36 -7 -91 -18 -124 -24 -32 -6 -70 -17 -85 -24 -14 -7 -47 -18 -72 -24 -25 -6 -94 -34 -153 -61 -159 -75 -353 -240 -451 -384 -127 -187 -172 -285 -211 -467 -27 -121 -27 -461 -1 -570 34 -142 79 -262 112 -300 7 -8 24 -34 37 -56 76 -135 156 -228 296 -344 162 -135 252 -179 512 -254 75 -21 76 -21 1395 -21 l1320 0 3 293 c1 160 1 293 0 294 -2 2 -579 5 -1283 8 l-1280 5 -59 23 c-33 13 -78 36 -100 51 -23 15 -62 39 -87 54 -66 38 -155 138 -195 221 -63 128 -74 176 -74 314 0 119 2 130 36 223 51 138 109 219 214 296 99 72 158 102 255 132 70 21 72 21 1311 21 951 0 1243 3 1252 12 9 9 12 88 12 295 0 269 -1 283 -19 293 -13 7 -422 10 -1258 9 -1015 -1 -1250 -3 -1303 -15z" />
    <path d="M5164 2395 c-113 -56 -183 -178 -170 -297 9 -91 57 -174 125 -215 29 -17 75 -37 103 -42 33 -8 445 -11 1262 -11 1016 0 1215 2 1225 14 8 9 11 95 9 292 l-3 279 -1250 3 -1251 2 -50 -25z" />
    <path d="M9100 3385 c-248 -51 -418 -119 -555 -221 -95 -70 -248 -220 -274 -269 -12 -22 -38 -62 -57 -90 -20 -27 -44 -68 -55 -90 -10 -22 -23 -47 -28 -55 -5 -8 -18 -40 -29 -70 -11 -30 -25 -71 -32 -90 -7 -19 -16 -69 -21 -110 -5 -41 -13 -94 -19 -117 -22 -93 -23 -184 -1 -287 12 -55 21 -118 21 -140 1 -23 7 -52 15 -66 8 -14 14 -35 15 -47 1 -60 131 -296 235 -425 53 -66 243 -228 330 -281 110 -68 293 -131 460 -158 28 -4 627 -8 1332 -8 l1283 -1 5 23 c3 12 4 146 3 297 l-3 275 -1280 5 -1280 5 -65 25 c-156 60 -326 197 -383 310 -60 116 -69 156 -74 308 -5 129 -3 150 17 210 34 102 97 218 140 254 156 136 209 167 343 204 l88 24 1238 0 c949 0 1240 3 1249 12 18 18 17 571 -1 586 -9 8 -375 11 -1258 11 l-1244 0 -115 -24z" />
  </g>
</svg>