<?xml version="1.0" encoding="utf-8"?>
<svg xmlns="http://www.w3.org/2000/svg" viewBox="0 0 2909 443" width="100%" height="100%">
  <rect x="34" y="0" width="371" height="442" fill="#febf00" stroke="none" />
  <g transform="translate(0.000000,443.000000) scale(0.100000,-0.100000)" fill="{TEXT_COLOR}" fill-rule="evenodd" stroke="none" id="logo-text">
    <path d="M393 3407 c-6 -10 -4 -587 3 -598 2 -5 592 -9 1310 -9 1142 0 1309 -2 1335 -15 35 -19 89 -109 89 -150 -1 -72 -69 -159 -147 -186 -31 -12 -266 -14 -1315 -14 -1271 0 -1278 0 -1279 -20 -1 -49 -1 -341 0 -447 l1 -118 711 0 711 0 77 -73 c42 -40 112 -103 156 -139 44 -37 98 -85 120 -108 22 -23 78 -74 125 -113 47 -39 114 -99 150 -133 36 -34 88 -80 115 -101 28 -22 64 -55 80 -74 17 -19 88 -83 159 -141 l128 -107 451 -1 c249 0 461 -2 471 -3 35 -4 25 18 -30 63 -31 25 -77 65 -103 90 -26 25 -96 88 -157 140 -60 52 -134 118 -164 146 -30 29 -103 94 -162 145 -58 52 -167 148 -242 213 -139 123 -164 158 -135 192 10 12 26 14 73 9 58 -6 145 3 248 24 73 16 201 84 281 151 90 76 145 147 208 275 28 55 56 106 62 114 8 9 12 72 12 195 l0 181 -33 77 c-18 43 -42 95 -54 115 -36 63 -124 175 -175 225 -54 52 -214 143 -265 151 -18 2 -59 14 -90 26 -57 21 -61 21 -1388 23 -733 2 -1334 0 -1337 -5z" />
    <path d="M23975 3403 c-9 -8 -12 -91 -13 -292 0 -242 2 -282 15 -293 13 -10 260 -13 1282 -15 696 -1 1283 -4 1303 -6 21 -3 53 -18 76 -36 31 -26 41 -42 51 -86 16 -73 3 -119 -50 -168 -82 -78 35 -72 -1389 -75 -996 -2 -1276 -5 -1282 -15 -4 -6 -8 -132 -8 -278 0 -201 3 -269 13 -277 8 -7 247 -11 702 -11 l689 -2 33 -25 c18 -14 104 -88 191 -166 86 -77 228 -204 315 -282 87 -77 175 -154 195 -169 20 -15 78 -67 127 -115 92 -90 185 -171 241 -210 31 -21 36 -21 494 -22 254 -1 464 1 466 3 9 8 -308 299 -390 357 -11 9 -58 51 -102 95 -45 44 -105 98 -133 120 -28 22 -82 71 -119 109 -37 38 -79 76 -94 85 -14 9 -60 49 -102 88 -56 52 -76 77 -76 96 0 14 5 29 11 33 7 4 59 8 118 10 58 2 136 10 174 19 65 15 92 25 187 68 52 24 244 197 268 242 112 210 148 379 118 555 -58 340 -237 539 -578 645 l-83 25 -1319 3 c-1003 1 -1322 -1 -1331 -10z" />
    <path d="M5140 3394 c-36 -7 -91 -18 -124 -24 -32 -6 -70 -17 -85 -24 -14 -7 -47 -18 -72 -24 -25 -6 -94 -34 -153 -61 -159 -75 -353 -240 -451 -384 -127 -187 -172 -285 -211 -467 -27 -121 -27 -461 -1 -570 34 -142 79 -262 112 -300 7 -8 24 -34 37 -56 76 -135 156 -228 296 -344 162 -135 252 -179 512 -254 75 -21 76 -21 1395 -21 l1320 0 3 293 c1 160 1 293 0 294 -2 2 -579 5 -1283 8 l-1280 5 -59 23 c-33 13 -78 36 -100 51 -23 15 -62 39 -87 54 -66 38 -155 138 -195 221 -63 128 -74 176 -74 314 0 119 2 130 36 223 51 138 109 219 214 296 99 72 158 102 255 132 70 21 72 21 1311 21 951 0 1243 3 1252 12 9 9 12 88 12 295 0 269 -1 283 -19 293 -13 7 -422 10 -1258 9 -1015 -1 -1250 -3 -1303 -15z" />
    <path d="M9100 3385 c-248 -51 -418 -119 -555 -221 -95 -70 -248 -220 -274 -269 -12 -22 -38 -62 -57 -90 -20 -27 -44 -68 -55 -90 -10 -22 -23 -47 -28 -55 -5 -8 -18 -40 -29 -70 -11 -30 -25 -71 -32 -90 -7 -19 -16 -69 -21 -110 -5 -41 -13 -94 -19 -117 -22 -93 -23 -184 -1 -287 12 -55 21 -118 21 -140 1 -23 7 -52 15 -66 8 -14 14 -35 15 -47 1 -60 131 -296 235 -425 53 -66 243 -228 330 -281 110 -68 293 -131 460 -158 28 -4 627 -8 1332 -8 l1283 -1 5 23 c3 12 4 146 3 297 l-3 275 -1280 5 -1280 5 -65 25 c-156 60 -326 197 -383 310 -60 116 -69 156 -74 308 -5 129 -3 150 17 210 34 102 97 218 140 254 156 136 209 167 343 204 l88 24 1238 0 c949 0 1240 3 1249 12 18 18 17 571 -1 586 -9 8 -375 11 -1258 11 l-1244 0 -115 -24z" />
    <path d="M13115 3403 c-71 -9 -275 -56 -344 -79 -113 -38 -261 -111 -301 -148 -19 -18 -70 -58 -112 -89 -49 -36 -91 -77 -117 -114 -22 -32 -60 -85 -85 -118 -75 -99 -133 -228 -183 -410 -26 -96 -27 -109 -27 -320 1 -204 3 -227 27 -315 49 -181 106 -313 164 -382 20 -24 50 -65 68 -93 39 -59 116 -141 165 -175 19 -13 58 -44 85 -69 89 -79 293 -165 488 -205 l127 -27 1078 3 1077 4 119 32 c312 85 474 195 702 477 102 125 174 290 216 495 17 81 22 140 22 260 1 198 -21 304 -108 539 -17 45 -63 132 -75 141 -4 3 -28 35 -53 71 -56 79 -251 268 -329 318 -49 32 -120 67 -231 115 -48 20 -265 73 -354 86 -65 9 -1948 12 -2019 3z m2036 -622 c35 -10 77 -22 93 -25 37 -9 123 -64 209 -133 50 -41 79 -76 115 -137 78 -131 92 -162 92 -195 0 -17 7 -49 16 -71 19 -46 15 -135 -10 -240 -33 -140 -161 -328 -265 -387 -25 -15 -64 -39 -86 -55 -22 -15 -75 -39 -118 -53 l-78 -25 -1002 0 c-577 0 -1017 4 -1037 10 -126 33 -273 115 -352 197 -51 53 -126 182 -164 282 -20 54 -24 81 -24 181 0 133 14 183 90 319 58 107 81 134 168 198 107 79 151 102 239 124 42 11 79 21 81 24 3 3 447 5 988 5 935 0 985 -1 1045 -19z" />
    <path d="M16075 3399 c-4 -5 8 -27 27 -48 62 -72 95 -116 140 -186 25 -39 65 -95 90 -125 24 -30 91 -120 148 -200 56 -80 115 -158 130 -175 14 -16 55 -73 90 -125 35 -52 85 -120 111 -152 27 -31 72 -91 100 -135 29 -43 78 -109 108 -148 31 -38 72 -92 91 -120 18 -27 46 -66 60 -85 40 -51 139 -185 183 -244 20 -28 58 -82 84 -121 25 -38 67 -95 93 -125 26 -30 73 -93 105 -140 31 -47 79 -114 106 -150 28 -36 71 -93 97 -128 26 -34 60 -78 76 -97 l28 -35 137 0 c75 0 142 4 148 8 13 8 93 115 140 187 14 22 45 63 69 91 23 27 73 95 109 150 37 54 87 119 110 144 23 25 57 71 74 102 18 32 36 60 42 63 5 4 27 32 49 63 22 31 69 95 105 142 36 47 92 123 125 170 33 47 82 114 110 150 28 36 64 88 80 115 16 28 60 86 97 130 38 44 84 105 103 135 19 30 53 80 77 110 23 30 75 100 116 155 168 228 189 256 232 305 25 28 45 57 45 64 0 12 119 177 161 222 41 44 40 44 -373 43 l-392 -2 -26 -26 c-14 -15 -43 -51 -65 -81 -22 -29 -54 -69 -71 -89 -17 -20 -46 -61 -64 -91 -18 -30 -44 -67 -58 -82 -14 -15 -41 -49 -61 -77 -85 -117 -222 -300 -258 -344 -21 -27 -59 -78 -85 -115 -58 -81 -101 -139 -151 -198 -20 -25 -57 -76 -81 -113 -24 -37 -52 -73 -62 -81 -9 -8 -36 -44 -59 -80 -23 -36 -52 -74 -63 -84 -12 -10 -36 -41 -53 -67 -29 -45 -34 -49 -71 -49 -46 0 -46 -1 -157 155 -44 61 -93 126 -109 145 -16 19 -44 58 -62 85 -18 28 -52 73 -75 100 -22 28 -62 82 -88 120 -25 39 -66 95 -91 125 -25 30 -65 82 -88 115 -23 33 -73 102 -112 153 -39 50 -85 112 -102 136 -18 25 -47 64 -67 88 -19 24 -42 58 -51 75 -9 18 -35 54 -59 81 -23 26 -62 78 -87 114 -25 37 -55 71 -66 77 -30 13 -781 14 -789 0z" />
    <path d="M20995 3403 c-87 -11 -287 -58 -339 -79 -33 -13 -63 -24 -68 -24 -5 0 -48 -19 -96 -42 -201 -98 -434 -328 -525 -518 -50 -107 -87 -193 -87 -205 0 -7 -11 -37 -24 -66 -22 -52 -50 -247 -48 -349 2 -191 46 -358 155 -590 115 -243 392 -495 642 -584 41 -14 116 -38 167 -53 l93 -27 1319 -3 c1061 -3 1321 -1 1328 9 9 15 11 548 2 572 -6 14 -127 16 -1269 16 l-1262 0 -76 25 c-222 72 -434 295 -478 504 -19 90 -6 272 25 355 34 88 103 192 170 253 63 58 152 123 169 123 7 0 22 7 34 15 12 8 50 25 85 37 l63 23 1259 2 c900 3 1263 7 1273 14 19 16 19 571 0 587 -9 8 -384 11 -1247 10 -679 0 -1248 -3 -1265 -5z" />
    <path d="M22245 2420 c-1164 -5 -1252 -6 -1280 -22 -53 -31 -113 -92 -139 -142 -22 -41 -26 -62 -25 -130 0 -74 3 -87 37 -151 34 -64 43 -73 102 -105 l65 -35 1249 -2 c984 -2 1252 0 1258 10 4 6 8 136 8 288 0 210 -3 279 -12 285 -8 5 -558 7 -1263 4z" />
    <path d="M5164 2395 c-113 -56 -183 -178 -170 -297 9 -91 57 -174 125 -215 29 -17 75 -37 103 -42 33 -8 445 -11 1262 -11 1016 0 1215 2 1225 14 8 9 11 95 9 292 l-3 279 -1250 3 -1251 2 -50 -25z" />
    <path d="M28175 1756 c-70 -30 -158 -81 -187 -108 -43 -41 -86 -112 -109 -178 -30 -86 -32 -235 -6 -301 64 -156 111 -205 262 -278 42 -20 70 -25 173 -29 109 -4 130 -2 189 18 139 47 244 149 290 280 44 125 27 293 -40 395 -48 73 -177 185 -214 185 -10 0 -38 9 -62 20 -63 29 -225 27 -296 -4z m282 -61 c37 -14 77 -35 88 -45 12 -11 24 -20 27 -20 15 0 68 -60 73 -83 4 -14 13 -31 21 -38 7 -6 17 -27 20 -48 4 -20 13 -50 21 -68 17 -43 17 -121 -2 -157 -8 -15 -15 -36 -15 -45 0 -9 -11 -38 -25 -66 -13 -27 -25 -54 -25 -60 0 -21 -132 -114 -161 -115 -9 0 -36 -9 -60 -20 -49 -22 -131 -19 -181 6 -15 8 -41 14 -58 14 -24 0 -44 12 -85 51 -76 72 -134 150 -141 190 -3 19 -13 55 -21 82 -13 41 -13 53 0 95 8 26 20 65 26 88 23 86 147 204 253 241 87 30 161 29 245 -2z" />
    <path d="M28170 1310 c0 -220 1 -230 19 -230 36 0 51 27 51 95 0 47 5 69 19 86 18 23 21 23 67 11 62 -17 66 -20 93 -89 12 -32 27 -68 32 -81 7 -19 15 -23 42 -20 29 3 32 6 35 42 3 37 -21 99 -61 158 -16 25 2 70 36 86 23 11 27 19 27 55 0 38 -5 47 -44 80 l-45 37 -135 0 -136 0 0 -230z m209 174 c43 -17 67 -58 56 -93 -15 -49 -138 -79 -177 -44 -24 22 -25 109 -1 135 20 22 69 23 122 2z" />
  </g>
</svg>